# xmcd CD database file
#
# Track frame offsets:
#	150
#	35587
#	74903
#	122621
#	147514
#
# Disc length: 2543 seconds
#
# Revision: 0
# Processed by: cddbd v1.5.2PL0 Copyright (c) Steve Scherf et al.
# Submitted via: CDex 1.70beta2
#
DISCID=4f09ed05
DTITLE=Ray Blue - Transvision
DYEAR=2005
DGENRE=Jazz
TTITLE0=Attitude
TTITLE1=Classic Meeting
TTITLE2=Softly as in a Morning Sunrise
TTITLE3=My friend and I took a Walk
TTITLE4=Transvision
EXTD=YEAR: 2005
EXTT0=
EXTT1=
EXTT2=
EXTT3=
EXTT4=
PLAYORDER=
